#N canvas 194 220 950 589 12;
#X obj 161 182 soundfiler;
#X obj 291 62 bng 20 250 50 0 empty empty empty 17 7 0 10 #fcfcfc #000000
#000000;
#X floatatom 161 209 8 0 0 0 - - - 0;
#X floatatom 179 534 5 0 0 0 - - - 0;
#X obj 179 498 netsend -u -b;
#X msg 179 333 connect 127.0.0.1 5000;
#X listbox 374 442 100 0 0 0 - - - 0;
#X obj 400 243 metro;
#X obj 282 470 oscformat pd2py;
#X obj 407 215 del 200;
#X floatatom 449 317 5 0 0 0 - - - 0;
#X floatatom 401 345 5 0 0 0 - - - 0;
#X obj 403 315 int;
#X msg 454 100 stop;
#X msg 206 361 disconnect;
#X obj 453 345 + 100;
#X msg 161 152 read ../wav/test.wav array7;
#X obj 373 411 array get array7;
#X msg 437 382 100;
#X text 11 126 1 Choose the input wave file here;
#X text 13 304 2 Choose port number and address here;
#X text 110 28 3 Make sure you have run up the python code and click
the bang button here to start;
#X text 503 88 4 Once you don't want to transmit anymore \, click the
stop button here everything will stop automatically.;
#X obj 612 205 array define array7 4.41e+06;
#X connect 0 0 2 0;
#X connect 1 0 16 0;
#X connect 1 0 9 0;
#X connect 1 0 5 0;
#X connect 1 0 18 0;
#X connect 1 0 23 0;
#X connect 4 0 3 0;
#X connect 5 0 4 0;
#X connect 6 0 8 0;
#X connect 7 0 12 0;
#X connect 8 0 4 0;
#X connect 9 0 7 0;
#X connect 9 0 10 0;
#X connect 10 0 12 1;
#X connect 11 0 17 0;
#X connect 12 0 11 0;
#X connect 12 0 15 0;
#X connect 13 0 7 0;
#X connect 13 0 14 0;
#X connect 14 0 4 0;
#X connect 15 0 12 1;
#X connect 16 0 0 0;
#X connect 17 0 6 0;
#X connect 18 0 17 1;
